<?xml version="1.0" encoding="UTF-8" standalone="no"?>
<svg xmlns="http://www.w3.org/2000/svg" height="60" viewBox="0 0 75 60" width="75">
  <g fill="none" fill-rule="nonzero">
    <path d="m0 38.1838906v14.5440729l12.6270814 7.2720365 12.6220546-7.2720365v-14.5440729l-12.6220546-7.2720365z" fill="#231f20" fill-opacity=".05"/>
    <path d="m11.8730757 19.9641823 22.519446-12.9722263 8.8211315 5.0762557-.7521572 1.3070416-8.068496-4.6432533-21.012 12.103v24.205l21.011 12.103 21.012-12.104.0003355-5.0396079h1.5080113v5.9124134l-22.5196355 12.9723355-22.5196356-12.9723355z" fill="#74d2e7"/>
    <path d="m6.05442988 0c1.27279456 0 2.30222576.24988411 3.10539875.67209257.31446758.16530794.55786555.33516626.73614155.48964981l.07572277.06892806.09686845.00156294c5.9558163.13319678 10.7981152 4.04692138 11.7252725 9.96501262l.0451675.3133197c.0362635.2752385-.157464.5277609-.4327025.5640245-.2752386.0362636-.527761-.157464-.5640246-.4327025-.7482772-5.67938527-5.3715187-9.40782342-11.08819001-9.40782342-.15338743 0-.29838095-.07003424-.39373565-.19018075-.08016191-.10100366-.29492433-.28563325-.66830777-.48191182-.4783367-.25144994-1.06831113-.43157082-1.78195466-.51111569l-.18139326-.01618558 1.04058931 3.63789105c.03432716.12007974.02246291.24746619-.03119264.35787481l-.04800879.07924367-1.735064 2.31322217-2.68152632 3.53211646-1.78634607 2.3360894c-.75626228.9876061-.60269344 2.3818447.3240932 3.1836527l.13115984.1055715.99829547.7473382 3.64365352-2.225096c.31804718-.1914857.67314657-.3065985 1.03690637-.33558l.18247016-.007268h1.33207666c1.08487724 0 1.96544144-.8785484 1.96544144-1.9597915 0-.2776172.2250532-.5026705.5026704-.5026705s.5026704.2250533.5026704.5026705c0 1.4723897-1.0769364 2.6949138-2.48657928 2.9258829-.11516694 1.1938919-.75926375 2.2151915-2.05131003 3.592111l-.88981741.9177021c-2.64285449 2.6998539-3.34435622 4.2686224-2.15865433 6.8313316l8.93351785.0000588c.2776172 0 .5026704.2250532.5026704.5026704 0 .2467709-.1778198.4520097-.4123147.4945718l-.0903557.0080986h-9.72164624c-.55002627 0-1.03849038.3318265-1.24299907.8287006l-.04508274.1275605-.98006113 3.2543768c-.1302544.4341091.16768118.8746948.60424537.9315102l.09556581.0061585h18.8853283c.4564269 0 .7920845-.4089162.7213725-.8439134l-.0214766-.0934734-.5262919-1.7486115-15.78152105.0001538c-.24677086 0-.45200968-.1778199-.49457175-.4123148l-.00809869-.0903557c0-.2467708.17781983-.4520097.41231479-.4945717l.09035565-.0080987h16.15582785c.1941327 0 .3681761.111365.4514528.2815438l.0299268.0763814.6337006 2.1075043c.3188857 1.069545-.43675 2.1417424-1.5252487 2.2258069l-.1377423.0052899h-18.8853283c-1.11413861 0-1.9285763-1.0335756-1.69703775-2.0991337l.03444409-.1332889.97971837-3.2532295c.26629186-.8952338 1.03812314-1.5373497 1.95056238-1.6541997-1.1230675-2.7393888-.2975885-4.6099647 2.30223487-7.319842l.88598621-.9092313c1.23049765-1.278455 1.83760373-2.1604307 1.98032947-3.0912422l-.79627534-.000775c-.19381463 0-.3877988.0439892-.56678585.1272914l-.13119134.0697748-3.93088282 2.4022797c-.15050575.0919785-.33603624.0973646-.48968157.019321l-.07385581-.0459596-1.27150202-.9526972c-1.49002033-1.1149571-1.7816452-3.2285148-.6507499-4.7053558l3.35664664-4.40002282 2.68797262-3.57002834-1.16257288-4.06883634c-.08415117-.29436893.11144182-.58754014.40188522-.63435778zm14.49701542 13.5410334c.4137855 0 .7532398.3069206.8030152.7068117l.0062842.1017858-.0000517.6740395.148507.0436043c.1929232.0621484.3824462.1347484.5689502.2177498l.2775396.1322968.1380032.0743491.4824856-.4798031c.2592429-.2586494.650251-.3056765.9574084-.1410815l.0989845.0627029.0909987.0783786 1.3069432 1.3039514c.2886266.2879659.3148654.7393468.0787163 1.0570245l-.0787163.0909951-.4818204.4788321.0741069.1394243c.0908816.1809272.1730638.3662237.2462668.5556715l.1030351.2872578.0445912.1476464.6792072.000126c.3761686 0 .6909066.2536533.7824198.6002162l.0205954.1065954.0062842.1017858v1.8455927c0 .4134979-.3114972.7525976-.7084199.80232l-.1008795.0062775-.6772072-.0009136-.0433834.1488585c-.0623192.1925705-.135117.3817424-.2183426.5678968l-.1326529.2770162-.0746211.1362285.4808204.4798717c.2597639.2591693.3069937.6507048.1416894.9580072l-.0629731.0990173-.0787163.0909951-1.3069432 1.3039514c-.2880476.2873882-.7387683.3135144-1.0563929.0783786l-.0909987-.0783786-.4824856-.4818427-.1401514.0748713c-.1812769.0906414-.3669261.1726044-.5567263.2456096l-.2877859.1027545-.1483364.0447646.0000517.6760791c0 .3762731-.2542353.6904459-.6009118.7817746l-.1066144.0205525-.1017732.0062704h-1.8498272c-.4137855 0-.7532399-.3069206-.8030152-.7068117l-.0062842-.1017858-.0006257-.6750791-.1478297-.0425647c-.1929232-.0621484-.3824461-.1347484-.5689502-.2177498l-.2775395-.1322969-.1386806-.0753886-.4818083.4808427c-.2592428.2586494-.6502509.3056765-.9574084.1410815l-.0989845-.0627029-.0909987-.0783786-1.3069431-1.3039514c-.2886266-.2879659-.3148654-.7393468-.0787164-1.0570245l.0787164-.0909951.481143-.4798717-.0734296-.1383847c-.0908815-.1809272-.1730637-.3662237-.2462667-.5556715l-.1030351-.2872578-.0452686-.148686-.6785299.0009136c-.3761686 0-.6909065-.2536533-.7824197-.6002162l-.0205954-.1065954-.0062843-.1017859v-1.8455927c0-.4139004.3076248-.7526594.7075263-.8023271l.1017731-.0062703.6765299-.000126.0440608-.1478189c.0623192-.1925705.1351169-.3817424.2183425-.5678968l.132653-.2770162.0739437-.1372681-.480143-.4788321c-.259764-.2591693-.3069938-.6507048-.1416894-.9580072l.062973-.0990173.0787164-.0909951 1.3069431-1.3039514c.2880476-.2873882.7387684-.3135144 1.0563929-.0783786l.0909987.0783786.4818083.4808031.1408288-.0738317c.1812768-.0906414.3669261-.1726044.5567263-.2456096l.2877858-.1027545.1476591-.0458042.0006257-.6750395c0-.3762731.2542353-.6904459.6009118-.7817746l.1066144-.0205525.1017732-.0062704zm-.1967523 1.004637h-1.458l.0009665.6314681c0 .2974295-.1615051.557715-.4039229.6958874l-.0945421.0459246-.4043836.1275966c-.3002961.1033243-.5910699.2338308-.8650384.3875322-.2836679.1650942-.6361551.1461292-.8862009-.0443089l-.0886308-.0794275-.4522478-.4516725-1.033 1.03.4510497.4502486c.2045426.2040744.2782424.4889642.2143473.7535263l-.0358275.1118443-.0527939.1075859c-.2149682.3730019-.3759056.7585935-.4818373 1.1593146-.0829675.3192847-.3495511.5554841-.6695835.5995311l-.1084784.007416-.6338764-.0004668v1.452l.6338764.0005728c.2972256 0 .5577431.160985.696189.4030467l.0460283.0944176.0335838.101082c.1132133.4066349.277213.8007159.4825215 1.1649995.1659786.2838834.1468771.6369372-.0443823.8870441l-.079767.0886283-.4510497.449209 1.033 1.03.4522478-.4506329c.2041445-.2036772.4886375-.277007.752904-.2134534l.1117254.0356369.1074894.0525125c.3740158.2145668.760691.3752183 1.1625817.4809734.3195101.0826463.5563968.3488534.600579.6689996l.0074392.1085354-.0009665.6304285h1.458l.0007108-.6304285c0-.2974296.1615052-.557715.403923-.6958874l.094542-.0459246.4043836-.1275966c.3002961-.1033243.59107-.2338308.8650385-.3875322.2836678-.1650942.636155-.1461292.8862009.0443089l.0886307.0794275.4515705.4506329 1.032-1.031-.4493724-.448209c-.2045426-.2040744-.2782423-.4889642-.2143472-.7535263l.0358274-.1118443.052794-.1075859c.2149682-.373002.3759055-.7585935.4818373-1.1593146.0829674-.3192847.3495511-.5554841.6695834-.5995312l.1084785-.0074159.633199-.0005728v-1.452l-.633199.0004668c-.2972257 0-.5577432-.160985-.696189-.4030467l-.0460284-.0944176-.0335838-.101082c-.1132133-.4066349-.277213-.8007159-.4825215-1.1649995-.1659786-.2838834-.1468771-.6369372.0443824-.8870441l.0797669-.0886283.4493724-.4492486-1.032-1.031-.4515705.4516725c-.2041445.2036772-.4886375.277007-.7529039.2134534l-.1117255-.0356369-.1074894-.0525125c-.3740157-.2145668-.7606909-.3752183-1.1625817-.4809734-.3195101-.0826463-.5563968-.3488534-.600579-.6689996l-.0074392-.1085354zm-.7382147 3.2933874c1.6404602 0 2.9707822 1.3272768 2.9707822 2.9651324s-1.330322 2.9651324-2.9707822 2.9651324-2.9707823-1.3272768-2.9707823-2.9651324 1.3303221-2.9651324 2.9707823-2.9651324zm0 1.0053408c-1.0857409 0-1.9654414.8776868-1.9654414 1.9597916s.8797005 1.9597916 1.9654414 1.9597916c1.0857408 0 1.9654414-.8776868 1.9654414-1.9597916s-.8797006-1.9597916-1.9654414-1.9597916zm-10.74311455-11.31439149c.17429329.17469318.19337105.44557858.0574296.64133184l-.05824418.06955104-.61325794.6118541c-.19652982.19607995-.51480293.19571525-.71088288-.00081458-.17429328-.17469318-.19337104-.44557858-.0574296-.64133185l.05824419-.06955103.61325793-.61185411c.19652983-.19607994.51480294-.19571524.71088288.00081459z" fill="#0f364e" transform="translate(42.86043 3.251889)"/>
  </g>
</svg>
